<?xml version="1.0" encoding="utf-8"?>
<!-- Generator: Adobe Illustrator 23.1.1, SVG Export Plug-In . SVG Version: 6.00 Build 0)  -->
<svg version="1.1" id="Layer_1" xmlns="http://www.w3.org/2000/svg" xmlns:xlink="http://www.w3.org/1999/xlink" x="0px" y="0px"
	 viewBox="0 0 36 36" style="enable-background:new 0 0 36 36;" xml:space="preserve">
<style type="text/css">
	.st0{fill:none;stroke:#AADCF1;stroke-width:2;stroke-miterlimit:10;}
</style>
<path class="st0" d="M30.07,13.55c0.06,1.47-0.23,2.86-0.79,4.06c-0.39,0.86-0.92,1.62-1.55,2.24l-0.33,0.31l-0.02,0.02l-8.73,9.4
	c-0.37,0.4-0.94,0.4-1.31,0l-8.73-9.4l-0.01-0.01l-0.35-0.33c-0.62-0.62-1.15-1.38-1.54-2.23c-0.51-1.1-0.79-2.35-0.79-3.68
	c0-4.31,3-7.81,6.71-7.81c1.46,0,2.82,0.55,3.92,1.48C17.11,8.05,17.59,8.6,18,9.24c0.41-0.63,0.89-1.19,1.45-1.65
	c1.14-0.96,2.55-1.51,4.07-1.47C27,6.2,29.91,9.49,30.07,13.55z"/>
</svg>
