<svg xmlns="http://www.w3.org/2000/svg" viewBox="0 0 144 144"><defs><style>.cls-1{fill:none;stroke:#419497;stroke-miterlimit:10;stroke-width:8px;}</style></defs><title>list</title><g id="Layer_1_copy_2" data-name="Layer 1 copy 2"><circle class="cls-1" cx="20.52" cy="21.24" r="10.05"/><circle class="cls-1" cx="20.52" cy="123.1" r="10.05"/><circle class="cls-1" cx="20.52" cy="72.17" r="10.05"/><path class="cls-1" d="M133.53,21.25a10.05,10.05,0,0,1-10,10.05H52.79a10.06,10.06,0,0,1,0-20.11h70.69A10.05,10.05,0,0,1,133.53,21.25Z"/><path class="cls-1" d="M133.53,72.18a10.05,10.05,0,0,1-10,10H52.79a10.06,10.06,0,0,1,0-20.11h70.69A10.05,10.05,0,0,1,133.53,72.18Z"/><path class="cls-1" d="M133.53,123.1a10.05,10.05,0,0,1-10,10.06H52.79a10.06,10.06,0,0,1,0-20.11h70.69A10.05,10.05,0,0,1,133.53,123.1Z"/></g></svg>