<?xml version="1.0" encoding="utf-8"?>
<!-- Generator: Adobe Illustrator 23.1.1, SVG Export Plug-In . SVG Version: 6.00 Build 0)  -->
<svg version="1.1" id="Layer_1" xmlns="http://www.w3.org/2000/svg" xmlns:xlink="http://www.w3.org/1999/xlink" x="0px" y="0px"
	 viewBox="0 0 36 36" style="enable-background:new 0 0 36 36;" xml:space="preserve">
<style type="text/css">
	.st0{fill:none;stroke:#AADCF1;stroke-width:2;stroke-miterlimit:10;}
	.st1{fill:none;stroke:#AADCF1;stroke-width:1.9288;stroke-miterlimit:10;}
</style>
<g>
	<circle class="st0" cx="8.18" cy="8.29" r="1.92"/>
	<circle class="st0" cx="8.18" cy="27.71" r="1.92"/>
	<circle class="st0" cx="8.18" cy="18" r="1.92"/>
	<path class="st1" d="M29.74,8.29c0,1.06-0.8,1.92-1.78,1.92H15.41c-0.98,0-1.78-0.86-1.78-1.92s0.8-1.92,1.78-1.92h12.54
		C28.94,6.37,29.74,7.23,29.74,8.29z"/>
	<path class="st1" d="M29.74,18c0,1.06-0.8,1.92-1.78,1.92H15.41c-0.98,0-1.78-0.86-1.78-1.92c0-1.06,0.8-1.92,1.78-1.92h12.54
		C28.94,16.08,29.74,16.94,29.74,18z"/>
	<path class="st1" d="M29.74,27.71c0,1.06-0.8,1.92-1.78,1.92H15.41c-0.98,0-1.78-0.86-1.78-1.92s0.8-1.92,1.78-1.92h12.54
		C28.94,25.8,29.74,26.66,29.74,27.71z"/>
</g>
</svg>
