<svg id="Layer_1" data-name="Layer 1" xmlns="http://www.w3.org/2000/svg" viewBox="0 0 144 144"><defs><style>.cls-1{fill:none;stroke:#419497;stroke-miterlimit:10;stroke-width:8px;}</style></defs><title>map-01</title><path class="cls-1" d="M69.46,11.3A40.39,40.39,0,0,0,32.33,49.68a40.22,40.22,0,0,0,4.81,20.88l33.29,61a2.36,2.36,0,0,0,4.14,0l33.22-60.91.13-.23a39,39,0,0,0,3.73-9.85,39.78,39.78,0,0,0,1.06-9.19A40.22,40.22,0,0,0,69.46,11.3Zm3,64.23A24.13,24.13,0,1,1,96.63,51.4,24.13,24.13,0,0,1,72.5,75.53Z"/></svg>