<?xml version="1.0" encoding="utf-8"?>
<!-- Generator: Adobe Illustrator 23.1.1, SVG Export Plug-In . SVG Version: 6.00 Build 0)  -->
<svg version="1.1" id="Layer_1" xmlns="http://www.w3.org/2000/svg" xmlns:xlink="http://www.w3.org/1999/xlink" x="0px" y="0px"
	 viewBox="0 0 36 36" style="enable-background:new 0 0 36 36;" xml:space="preserve">
<style type="text/css">
	.st0{fill:none;stroke:#AADCF1;stroke-width:2;stroke-miterlimit:10;}
</style>
<path class="st0" d="M17.42,6.39c-3.84,0.28-6.92,3.47-7.08,7.32c-0.03,0.72,0.04,1.42,0.2,2.08c0.16,0.67,0.4,1.31,0.72,1.9
	l6.35,11.64c0.17,0.31,0.62,0.31,0.79,0l6.34-11.62l0.03-0.04c0.32-0.58,0.56-1.21,0.71-1.88c0.13-0.56,0.2-1.15,0.2-1.75
	C25.67,9.61,21.92,6.06,17.42,6.39z M18,18.64c-2.54,0-4.6-2.06-4.6-4.6c0-2.54,2.06-4.6,4.6-4.6c2.54,0,4.6,2.06,4.6,4.6
	C22.6,16.58,20.54,18.64,18,18.64z"/>
</svg>
